<svg id="5e4197ba-3582-493e-844c-678f07c8dec2" data-name="Layer 1" xmlns="http://www.w3.org/2000/svg" width="494" height="223" viewBox="0 0 494 223"><defs><style>.cbe94c3d-9c08-40a4-9a06-db01c8c3551a{fill:#d53524;}.\33 7e94798-c71c-4223-8738-98ca5cf930ae{fill:#fff;}</style></defs><title>top_40_blog_red</title><path class="cbe94c3d-9c08-40a4-9a06-db01c8c3551a" d="M113.25,49.46a151.83,151.83,0,0,1,80.45,23A4.4,4.4,0,1,1,189,79.92a143.47,143.47,0,0,0-151.58,0,4.4,4.4,0,0,1-4.66-7.47A151.87,151.87,0,0,1,113.25,49.46Z"/><path class="cbe94c3d-9c08-40a4-9a06-db01c8c3551a" d="M143.3,130.31a22.27,22.27,0,0,1,9.87,2.27l-3.87,7.91a13.57,13.57,0,0,0-6-1.37,13.82,13.82,0,0,0-8.51,24.71l-5.43,6.94a22.63,22.63,0,0,1,13.93-40.46Z"/><path class="cbe94c3d-9c08-40a4-9a06-db01c8c3551a" d="M82.08,106.61a22.63,22.63,0,1,1,0,45.26c-.4,0-.81,0-1.21,0l.39-8.8a13.82,13.82,0,1,0-11.91-19.2l-8.11-3.44A22.58,22.58,0,0,1,82.08,106.61Z"/><path class="cbe94c3d-9c08-40a4-9a06-db01c8c3551a" d="M127,113.62A22.62,22.62,0,1,0,104.33,91,22.62,22.62,0,0,0,127,113.62Zm0-36.45A13.83,13.83,0,1,1,113.13,91,13.86,13.86,0,0,1,127,77.17Z"/><path class="cbe94c3d-9c08-40a4-9a06-db01c8c3551a" d="M31.37,78.51,113.25,210,195.09,78.51,217,43.33,213.27,41A189.34,189.34,0,0,0,13.2,41L9.47,43.33Zm81.88-57.3a179.92,179.92,0,0,1,91.6,25l-14.94,24-4.66,7.49-33.72,54.19-4.82,7.71-13.92,22.34L128,169.58l-14.76,23.74-26.16-42L82,143h0L69.59,123.26,64.47,115,41.22,77.67l-4.66-7.49-14.94-24A180.13,180.13,0,0,1,113.25,21.21Z"/><path class="37e94798-c71c-4223-8738-98ca5cf930ae" d="M242,59.79l-2.38-6.08H232l-2.35,6.08h-2.25l7.55-19.18h1.87l7.51,19.18ZM239,51.72l-2.22-5.92q-.43-1.12-.89-2.76A24.84,24.84,0,0,1,235,45.8l-2.25,5.92Z"/><path class="37e94798-c71c-4223-8738-98ca5cf930ae" d="M263.62,59.79h-2.2L257.57,47q-.28-.85-.61-2.14a12.27,12.27,0,0,1-.35-1.56,29.92,29.92,0,0,1-.92,3.78L252,59.79h-2.2l-5.08-19.1H247l3,11.8A44.16,44.16,0,0,1,251,57a32.32,32.32,0,0,1,1-4.68l3.42-11.62h2.35l3.59,11.72A35.62,35.62,0,0,1,262.43,57a39,39,0,0,1,.94-4.52l3-11.77h2.35Z"/><path class="37e94798-c71c-4223-8738-98ca5cf930ae" d="M283.73,59.79l-2.38-6.08H273.7l-2.35,6.08H269.1l7.55-19.18h1.87L286,59.79Zm-3.07-8.08-2.22-5.92q-.43-1.12-.89-2.76a24.86,24.86,0,0,1-.82,2.76l-2.25,5.92Z"/><path class="37e94798-c71c-4223-8738-98ca5cf930ae" d="M290.88,51.85v7.95h-2.22V40.69h5.24A8.25,8.25,0,0,1,299.1,42a4.88,4.88,0,0,1,1.68,4.05q0,3.79-3.84,5.12l5.19,8.59h-2.63l-4.63-7.95Zm0-1.91h3a5.26,5.26,0,0,0,3.45-.93,3.48,3.48,0,0,0,1.1-2.8,3.19,3.19,0,0,0-1.12-2.73,6.06,6.06,0,0,0-3.59-.84h-2.89Z"/><path class="37e94798-c71c-4223-8738-98ca5cf930ae" d="M320.46,50.06q0,4.73-2.57,7.23t-7.39,2.5H305.2V40.69h5.85A9.36,9.36,0,0,1,318,43.16,9.33,9.33,0,0,1,320.46,50.06Zm-2.35.08a7.69,7.69,0,0,0-1.87-5.63,7.52,7.52,0,0,0-5.57-1.89h-3.23V57.87h2.71q4,0,6-2A7.74,7.74,0,0,0,318.1,50.14Z"/><path class="37e94798-c71c-4223-8738-98ca5cf930ae" d="M335.37,59.79H324.71V40.69h10.65v2h-8.43v6.15h7.92v2h-7.92v7h8.43Z"/><path class="37e94798-c71c-4223-8738-98ca5cf930ae" d="M354.85,50.06q0,4.73-2.57,7.23t-7.39,2.5H339.6V40.69h5.85a9.36,9.36,0,0,1,6.93,2.47A9.33,9.33,0,0,1,354.85,50.06Zm-2.35.08a7.69,7.69,0,0,0-1.87-5.63A7.52,7.52,0,0,0,345,42.61h-3.23V57.87h2.7q4,0,6-2A7.73,7.73,0,0,0,352.5,50.14Z"/><path class="37e94798-c71c-4223-8738-98ca5cf930ae" d="M214.59,90h-2.52a17.88,17.88,0,0,0-.85-4.79,7.5,7.5,0,0,0-1.91-3.05,6.7,6.7,0,0,0-3-1.59,17.08,17.08,0,0,0-4.11-.44q-2.29,0-3.67.09a10.92,10.92,0,0,0-2.11.29,1.67,1.67,0,0,0-1,.56,1.55,1.55,0,0,0-.24.88V112.7a17.08,17.08,0,0,0,.26,3.23,4.25,4.25,0,0,0,1.09,2.2,5.21,5.21,0,0,0,2.41,1.29,17.53,17.53,0,0,0,4.17.5v2.35h-24.6v-2.35a17.8,17.8,0,0,0,4.23-.5,5.44,5.44,0,0,0,2.44-1.29,4.15,4.15,0,0,0,1.12-2.2,17.09,17.09,0,0,0,.26-3.23V81.94a1.73,1.73,0,0,0-.21-.88,1.45,1.45,0,0,0-.85-.56,8.51,8.51,0,0,0-1.85-.29q-1.2-.09-3.14-.09a38.5,38.5,0,0,0-4.05.21,7.53,7.53,0,0,0-3.41,1.17,6.83,6.83,0,0,0-2.38,2.94,14.1,14.1,0,0,0-1,5.55h-2.29L168,77.06h46Z"/><path class="37e94798-c71c-4223-8738-98ca5cf930ae" d="M229.86,90.57a18.48,18.48,0,0,1,6.66,1.2A17.83,17.83,0,0,1,242,95.09a15.59,15.59,0,0,1,3.76,5,14.66,14.66,0,0,1,1.38,6.37,15.52,15.52,0,0,1-1.38,6.58,16,16,0,0,1-3.76,5.17,17.68,17.68,0,0,1-5.52,3.41,18.59,18.59,0,0,1-13.24,0,16.92,16.92,0,0,1-5.46-3.38,15.71,15.71,0,0,1-3.7-5.2,16,16,0,0,1-1.35-6.61,15.13,15.13,0,0,1,1.35-6.4,15.33,15.33,0,0,1,3.7-5,17.08,17.08,0,0,1,5.46-3.29A18.47,18.47,0,0,1,229.86,90.57Zm0,3.41a6,6,0,0,0-3.23.91,7.79,7.79,0,0,0-2.5,2.55,13.29,13.29,0,0,0-1.59,4,21.93,21.93,0,0,0-.56,5.14,22.86,22.86,0,0,0,.56,5.28,13.25,13.25,0,0,0,1.59,4,7.88,7.88,0,0,0,2.47,2.55,6,6,0,0,0,3.26.91,6.26,6.26,0,0,0,3.32-.91,7.86,7.86,0,0,0,2.55-2.58,13.72,13.72,0,0,0,1.64-4,21.6,21.6,0,0,0,.59-5.23,20.61,20.61,0,0,0-.59-5.11,13.78,13.78,0,0,0-1.64-4,7.87,7.87,0,0,0-2.55-2.58A6.27,6.27,0,0,0,229.86,94Z"/><path class="37e94798-c71c-4223-8738-98ca5cf930ae" d="M262.15,95h.24a12.82,12.82,0,0,1,10.1-4.4,15.92,15.92,0,0,1,6.25,1.2,14.72,14.72,0,0,1,8.16,8.46,17.88,17.88,0,0,1,1.14,6.49,17.64,17.64,0,0,1-1.14,6.46,15.56,15.56,0,0,1-3.2,5.11,14.34,14.34,0,0,1-4.9,3.38,15.75,15.75,0,0,1-6.19,1.2q-5.7,0-8.69-3.88h-.23v8.16a23.92,23.92,0,0,0,.23,3.76,3.88,3.88,0,0,0,1,2.17,4.19,4.19,0,0,0,2.14,1.06,21,21,0,0,0,3.67.35V137H250.47v-2.47a10.83,10.83,0,0,0,2.58-.35,2.87,2.87,0,0,0,1.56-1.06,4.75,4.75,0,0,0,.76-2.08,23.22,23.22,0,0,0,.21-3.43V105.72q0-2.7-.12-5.14a31.54,31.54,0,0,0-.29-3.44,2.59,2.59,0,0,0-1.32-1.88,8.26,8.26,0,0,0-3.49-.53V92.45l11.8-1.64Zm10-1.06a8.14,8.14,0,0,0-3.58.82,7.15,7.15,0,0,0-2.7,2.17,9.78,9.78,0,0,0-1.53,3.38,17.28,17.28,0,0,0-.53,4.37v4a12.07,12.07,0,0,0,2.05,7.1,7.2,7.2,0,0,0,6.28,3.23,5.74,5.74,0,0,0,5.31-3q1.73-3,1.73-9.19Q279.18,93.91,272.13,93.91Z"/><path class="37e94798-c71c-4223-8738-98ca5cf930ae" d="M306.37,106.54,327.8,76.47h5.58v29.89a21.67,21.67,0,0,0,3.46-.32,4.79,4.79,0,0,0,2.11-.88,3.19,3.19,0,0,0,1.06-1.67,10.62,10.62,0,0,0,.29-2.76h2.17V115H340.3a9.4,9.4,0,0,0-.29-2.58,2.87,2.87,0,0,0-1.06-1.56,4.79,4.79,0,0,0-2.11-.76,29.25,29.25,0,0,0-3.46-.26v1.82a27.1,27.1,0,0,0,.21,3.58,7,7,0,0,0,.79,2.55,3.78,3.78,0,0,0,1.67,1.56,6.93,6.93,0,0,0,2.79.59v2.35H318.7v-2.35a8.93,8.93,0,0,0,3.32-.62,4.43,4.43,0,0,0,1.94-1.56,6,6,0,0,0,.91-2.41,20.38,20.38,0,0,0,.23-3.29v-2H306.37Zm18.73-19.2h-.23l-13.5,19H325.1Z"/><path class="37e94798-c71c-4223-8738-98ca5cf930ae" d="M366.9,76.47a16.45,16.45,0,0,1,7.6,1.82,19.72,19.72,0,0,1,6.19,5,24.7,24.7,0,0,1,4.2,7.46,27,27,0,0,1,1.56,9.28,25.34,25.34,0,0,1-1.56,8.93,23.83,23.83,0,0,1-4.2,7.25,19.89,19.89,0,0,1-6.19,4.87,16.66,16.66,0,0,1-7.6,1.79,16.17,16.17,0,0,1-7.49-1.79,19.76,19.76,0,0,1-6.11-4.87,23.68,23.68,0,0,1-4.14-7.25,25.74,25.74,0,0,1-1.53-8.93,27.44,27.44,0,0,1,1.53-9.28,24.56,24.56,0,0,1,4.14-7.46,19.6,19.6,0,0,1,6.11-5A16,16,0,0,1,366.9,76.47Zm0,43a7.79,7.79,0,0,0,3.79-.91,7.26,7.26,0,0,0,2.85-3.14,19.93,19.93,0,0,0,1.79-5.93,57.93,57.93,0,0,0,.62-9.28,63.88,63.88,0,0,0-.62-9.72,21.82,21.82,0,0,0-1.79-6.25,7.81,7.81,0,0,0-2.85-3.35,7.68,7.68,0,0,0-7.57,0,7.81,7.81,0,0,0-2.85,3.35,21.82,21.82,0,0,0-1.79,6.25,63.89,63.89,0,0,0-.62,9.72,58,58,0,0,0,.62,9.28,19.93,19.93,0,0,0,1.79,5.93,7.26,7.26,0,0,0,2.85,3.14A7.79,7.79,0,0,0,366.9,119.46Z"/><path class="37e94798-c71c-4223-8738-98ca5cf930ae" d="M207.84,160.09a10.91,10.91,0,0,1-4.93,9.66q-4.93,3.32-14.33,3.32h-5V183.4a17.89,17.89,0,0,0,.29,3.61,3.62,3.62,0,0,0,1.23,2.14,5.19,5.19,0,0,0,2.58,1,32.65,32.65,0,0,0,4.4.23v2.35H168.79v-2.35A16.15,16.15,0,0,0,172,190a3.6,3.6,0,0,0,1.88-1,3.93,3.93,0,0,0,.88-2,19.38,19.38,0,0,0,.23-3.35V156.56a21.51,21.51,0,0,0-.21-3.32,4.25,4.25,0,0,0-.79-2,3,3,0,0,0-1.67-1,17.5,17.5,0,0,0-2.85-.38v-2.35h20.32q8.92,0,13.5,3.17T207.84,160.09Zm-24.25,9.45h3.82q5.7,0,8.34-2.29t2.64-7.22a9.65,9.65,0,0,0-2.23-6.81q-2.23-2.41-7-2.41h-4.52q-1.06,0-1.06,1Z"/><path class="37e94798-c71c-4223-8738-98ca5cf930ae" d="M223.93,183.1a31.52,31.52,0,0,0,.18,3.76,4.9,4.9,0,0,0,.7,2.17,2.59,2.59,0,0,0,1.53,1,12.7,12.7,0,0,0,2.7.32v2.35h-18.5v-2.35a10.35,10.35,0,0,0,2.67-.38,3.08,3.08,0,0,0,1.58-1.06,4.52,4.52,0,0,0,.76-2.06,22.7,22.7,0,0,0,.21-3.38v-7.22q0-3.4-.12-5.61a22.93,22.93,0,0,0-.29-3,2.49,2.49,0,0,0-1.32-1.94,10.07,10.07,0,0,0-3.73-.47v-2L223.93,161Zm-8.63-34.53a4.43,4.43,0,0,1,1.32-3.26,4.36,4.36,0,0,1,3.2-1.32,4.51,4.51,0,0,1,4.58,4.58,4.36,4.36,0,0,1-1.32,3.2,4.43,4.43,0,0,1-3.26,1.32,4.51,4.51,0,0,1-4.52-4.52Z"/><path class="37e94798-c71c-4223-8738-98ca5cf930ae" d="M260.57,192.73h-29v-1.35l18.38-26.66h-5.4a33.21,33.21,0,0,0-4.11.21,5.71,5.71,0,0,0-2.55.88,4.2,4.2,0,0,0-1.47,1.85,15.14,15.14,0,0,0-.85,3.11h-2.29l.71-9.16h26.48V163l-18.08,26.6h5.17a39.8,39.8,0,0,0,5.05-.26,8.51,8.51,0,0,0,3.23-1,5.16,5.16,0,0,0,1.94-2.06,15.14,15.14,0,0,0,1.23-3.49h2.29Z"/><path class="37e94798-c71c-4223-8738-98ca5cf930ae" d="M293.92,192.73h-29v-1.35l18.38-26.66h-5.4a33.22,33.22,0,0,0-4.11.21,5.71,5.71,0,0,0-2.55.88,4.2,4.2,0,0,0-1.47,1.85,15,15,0,0,0-.85,3.11h-2.29l.7-9.16H293.8V163l-18.09,26.6h5.17a39.75,39.75,0,0,0,5-.26,8.52,8.52,0,0,0,3.23-1,5.18,5.18,0,0,0,1.94-2.06,15.19,15.19,0,0,0,1.23-3.49h2.29Z"/><path class="37e94798-c71c-4223-8738-98ca5cf930ae" d="M316.93,172.89v-2.47a8.15,8.15,0,0,0-1.2-5A4.42,4.42,0,0,0,312,163.9a3.44,3.44,0,0,0-2.58.91,8.64,8.64,0,0,0-1.64,3,5.26,5.26,0,0,1-1.5,2.29,4,4,0,0,1-2.67.82,3.19,3.19,0,0,1-2.52-1,4.12,4.12,0,0,1-.88-2.82q0-2.82,3.08-4.46t9.31-1.64q6.57,0,9.39,2.38t2.82,8v12.86q0,5,2,5a3.19,3.19,0,0,0,2.05-.76l.88,1.7a5.7,5.7,0,0,1-2.55,2.32,8.74,8.74,0,0,1-3.9.85,5.11,5.11,0,0,1-4.11-1.64,6.91,6.91,0,0,1-1.41-4.64h-.29a11.56,11.56,0,0,1-10.57,6.22,8.34,8.34,0,0,1-5.93-2.08,7.09,7.09,0,0,1-2.23-5.43A6.75,6.75,0,0,1,301,180.9a23.92,23.92,0,0,1,7.63-4.43Zm0,3.11a39.51,39.51,0,0,0-7.43,4.14q-2.5,1.91-2.49,4a3.78,3.78,0,0,0,.94,2.7,3.09,3.09,0,0,0,2.35,1,7,7,0,0,0,2.64-.5,6.75,6.75,0,0,0,2.11-1.32,5.85,5.85,0,0,0,1.38-2,6,6,0,0,0,.5-2.44Z"/><path class="37e94798-c71c-4223-8738-98ca5cf930ae" d="M348,192.73v-2.35a16,16,0,0,0,3.2-.35,3.36,3.36,0,0,0,2.79-3,19.37,19.37,0,0,0,.24-3.35V156.56a25,25,0,0,0-.18-3.32,4.23,4.23,0,0,0-.73-2,2.77,2.77,0,0,0-1.53-1,14.05,14.05,0,0,0-2.55-.38v-2.35h18.85q8.87,0,13.65,2.85a9,9,0,0,1,4.79,8.13q0,7-10,9.86v.24a17.69,17.69,0,0,1,5.84.91,12.84,12.84,0,0,1,4.43,2.55,11.53,11.53,0,0,1,2.82,3.88,11.81,11.81,0,0,1,1,4.87,9.43,9.43,0,0,1-1.44,5.22A11.54,11.54,0,0,1,385,189.8q-5.23,2.94-14.39,2.94Zm18.32-25.54a18.5,18.5,0,0,0,4.58-.5,10.11,10.11,0,0,0,3.29-1.44q2.82-1.94,2.82-6,0-4.28-2.11-6.19t-6.81-1.91h-4.17q-1.06,0-1.06,1v15.09Zm4.7,22q9.45,0,9.45-8.51,0-5.23-3.41-7.63a11.68,11.68,0,0,0-4.55-1.76,37.48,37.48,0,0,0-6.84-.53h-2.82v11.74q0,3.64,1.88,5.17T371,189.15Z"/><path class="37e94798-c71c-4223-8738-98ca5cf930ae" d="M407.06,183.1a31.52,31.52,0,0,0,.18,3.76,4.88,4.88,0,0,0,.7,2.17,2.59,2.59,0,0,0,1.53,1,12.72,12.72,0,0,0,2.7.32v2.35h-18.5v-2.35a10.35,10.35,0,0,0,2.67-.38,3.08,3.08,0,0,0,1.59-1.06,4.54,4.54,0,0,0,.76-2.06,22.7,22.7,0,0,0,.21-3.38V159.26q0-3.4-.12-5.61a23,23,0,0,0-.29-3,2.49,2.49,0,0,0-1.32-1.94,10.1,10.1,0,0,0-3.73-.47v-2L407.06,144Z"/><path class="37e94798-c71c-4223-8738-98ca5cf930ae" d="M432.66,161a18.46,18.46,0,0,1,6.67,1.2,17.83,17.83,0,0,1,5.52,3.32,15.62,15.62,0,0,1,3.76,5,14.67,14.67,0,0,1,1.38,6.37,15.54,15.54,0,0,1-1.38,6.58,16,16,0,0,1-3.76,5.17,17.66,17.66,0,0,1-5.52,3.41,18.61,18.61,0,0,1-13.24,0,16.94,16.94,0,0,1-5.46-3.38,15.69,15.69,0,0,1-3.7-5.2,16,16,0,0,1-1.35-6.61,15.11,15.11,0,0,1,1.35-6.4,15.33,15.33,0,0,1,3.7-5.05,17.09,17.09,0,0,1,5.46-3.29A18.46,18.46,0,0,1,432.66,161Zm0,3.41a6,6,0,0,0-3.23.91,7.8,7.8,0,0,0-2.5,2.55,13.27,13.27,0,0,0-1.58,4,21.93,21.93,0,0,0-.56,5.14,22.85,22.85,0,0,0,.56,5.28,13.24,13.24,0,0,0,1.58,4,7.89,7.89,0,0,0,2.47,2.55,6,6,0,0,0,3.26.91,6.26,6.26,0,0,0,3.32-.91,7.84,7.84,0,0,0,2.55-2.58,13.75,13.75,0,0,0,1.64-4,21.54,21.54,0,0,0,.59-5.23,20.57,20.57,0,0,0-.59-5.11,13.81,13.81,0,0,0-1.64-4,7.87,7.87,0,0,0-2.55-2.58A6.27,6.27,0,0,0,432.66,164.43Z"/><path class="37e94798-c71c-4223-8738-98ca5cf930ae" d="M465.54,186.39q1.58.12,2.79.23t2.29.26l2.17.29,2.32.32a11.75,11.75,0,0,1,7.19,3.43,9.71,9.71,0,0,1,2.61,6.9,8.4,8.4,0,0,1-4.11,7.57Q476.7,208,468.72,208q-7.34,0-11.3-2.14t-4-6.08a6.18,6.18,0,0,1,1.58-4.61,5.47,5.47,0,0,1,4-1.56,7.47,7.47,0,0,1,3,.62,6.53,6.53,0,0,1,2.44,1.79,4.33,4.33,0,0,0-2.5,1.38,3.71,3.71,0,0,0-1,2.55,4,4,0,0,0,2.08,3.61,12,12,0,0,0,6.14,1.26q8.81,0,8.81-5.58a4.9,4.9,0,0,0-1.32-3.43,5.87,5.87,0,0,0-3.79-1.73l-10.28-1.41q-6.52-.88-6.52-5.81a5.27,5.27,0,0,1,1.56-3.93,8.63,8.63,0,0,1,4.43-2.11v-.24a8.33,8.33,0,0,1-2.44-1.47,10.67,10.67,0,0,1-1.91-2.17,10.15,10.15,0,0,1-1.7-5.64,9.36,9.36,0,0,1,.91-4.08,9.56,9.56,0,0,1,2.53-3.26,12.48,12.48,0,0,1,3.82-2.14,14.05,14.05,0,0,1,4.79-.79,16.26,16.26,0,0,1,4.93.76,12.79,12.79,0,0,1,4.11,2.11q1.35-.82,2.35-1.38a14.16,14.16,0,0,1,1.85-.88,10.42,10.42,0,0,1,1.56-.47,6.91,6.91,0,0,1,1.41-.15,6,6,0,0,1,3.61,1,3.11,3.11,0,0,1,1.38,2.64,2.81,2.81,0,0,1-.76,2,2.65,2.65,0,0,1-2,.79,2.35,2.35,0,0,1-1.41-.38,8.41,8.41,0,0,1-1-.88,8.66,8.66,0,0,0-1-.88,2.36,2.36,0,0,0-1.41-.38,3,3,0,0,0-2.35,1.58,7,7,0,0,1,.82,2.14,13.45,13.45,0,0,1,.23,2.67,11.61,11.61,0,0,1-.7,4.11,8.86,8.86,0,0,1-2.2,3.32,12.57,12.57,0,0,1-3.85,2.44,20,20,0,0,1-5.7,1.35,15.07,15.07,0,0,0-3.91.76,1.52,1.52,0,0,0-1.09,1.41Q462.9,186.16,465.54,186.39Zm2.82-7.16a3.24,3.24,0,0,0,2.94-2,15.33,15.33,0,0,0,0-11.19,3.28,3.28,0,0,0-3-2,3.56,3.56,0,0,0-3.17,2,10.77,10.77,0,0,0-1.17,5.46,11.2,11.2,0,0,0,1.2,5.61A3.61,3.61,0,0,0,468.36,179.23Z"/></svg>